<?xml version="1.0" encoding="UTF-8" standalone="no"?>
<svg
   xmlns:dc="http://purl.org/dc/elements/1.1/"
   xmlns:cc="http://creativecommons.org/ns#"
   xmlns:rdf="http://www.w3.org/1999/02/22-rdf-syntax-ns#"
   xmlns:svg="http://www.w3.org/2000/svg"
   xmlns="http://www.w3.org/2000/svg"
   id="svg8"
   version="1.1"
   viewBox="0 0 17.174295 18.862872"
   height="71.292747"
   width="64.910721">
  <defs
     id="defs2" />
  <metadata
     id="metadata5">
    <rdf:RDF>
      <cc:Work
         rdf:about="">
        <dc:format>image/svg+xml</dc:format>
        <dc:type
           rdf:resource="http://purl.org/dc/dcmitype/StillImage" />
        <dc:title></dc:title>
      </cc:Work>
    </rdf:RDF>
  </metadata>
  <g
     transform="translate(-101.29312,-98.023246)"
     id="layer1" />
  <g
     id="g5066"
     transform="translate(-101.29312,-98.023246)">
    <g
       id="g5081">
      <g
         transform="translate(27.143998,-24.267455)"
         id="g5064"
         style="display:inline">
        <path
           id="path5062"
           d="m 78.358273,139.06486 c -2.917594,-1.7023 -3.632334,-2.23933 -3.920614,-2.94583 -0.255327,-0.62574 -0.329343,-1.98183 -0.268395,-4.91749 0.100273,-4.82983 -0.148256,-4.43121 4.44978,-7.13714 4.028047,-2.37049 4.176041,-2.36992 8.334375,0.0318 4.679136,2.70251 4.365625,2.16619 4.365625,7.46832 0,3.48862 -0.08413,4.57119 -0.389072,5.00655 -0.601571,0.85887 -7.294243,4.59057 -8.218527,4.58249 -0.492708,-0.004 -2.113977,-0.7822 -4.353172,-2.08869 z m 3.229001,-3.92372 c 0.202946,-0.78644 0.31063,-0.85989 1.260679,-0.85989 0.977697,0 1.048995,0.0545 1.212506,0.92604 l 0.173726,0.92604 h 1.843661 1.84366 l -0.161545,-0.7276 c -0.08885,-0.40019 -0.726263,-2.63261 -1.416474,-4.96094 l -1.254928,-4.23334 -2.177215,-0.0768 c -2.052395,-0.0725 -2.192133,-0.0421 -2.437423,0.52916 -0.263253,0.61312 -2.648627,9.01031 -2.648627,9.32391 0,0.0934 0.796518,0.13463 1.77004,0.0916 1.752078,-0.0774 1.772291,-0.087 1.99194,-0.93813 z m 0.818772,-4.17397 c 0.306416,-1.33904 0.580414,-1.27305 0.852063,0.20522 0.170562,0.92817 0.140115,0.99219 -0.471872,0.99219 -0.63987,0 -0.648197,-0.0262 -0.380191,-1.19741 z"
           style="display:inline;fill:#4756ec;stroke-width:1" />
      </g>
      <path
         style="opacity:1;fill:#ffffff;fill-opacity:0.97209305;stroke:none;stroke-width:26.32440948;stroke-linecap:round;stroke-linejoin:round;stroke-miterlimit:4;stroke-dasharray:none;stroke-opacity:1;paint-order:normal"
         d="m 150.59839,55.337465 c -0.0269,-0.08681 -0.22627,-1.123795 -0.44311,-2.30441 -0.82462,-4.489716 -0.88454,-4.545687 -4.86654,-4.545687 -3.69016,0 -3.90645,0.157141 -4.86269,3.532951 -0.21599,0.762507 -0.50865,1.573973 -0.65035,1.80326 -0.30641,0.495776 -0.92402,0.833518 -1.8737,1.024644 -2.29535,0.461944 -11.01082,0.537486 -11.44907,0.09924 -0.14958,-0.149573 1.73453,-7.179849 4.94609,-18.455652 3.01064,-10.570389 4.67677,-16.042463 5.20945,-17.109459 0.91595,-1.834712 1.29032,-1.891033 10.51117,-1.581303 3.64602,0.12247 6.63584,0.230054 6.64405,0.239076 0.0268,0.02943 6.07019,20.504191 7.11109,24.091961 2.14672,7.399274 3.54372,12.622882 3.54372,13.250486 0,0.06475 -2.93059,0.112733 -6.88562,0.112733 -5.39827,0 -6.89618,-0.03409 -6.93449,-0.157836 z m -4.57786,-14.866459 c 0.86949,-0.0025 1.22538,-0.379958 1.22538,-1.299725 0,-1.40805 -0.79765,-5.08378 -1.33841,-6.167684 -0.47275,-0.947562 -0.84111,-0.945264 -1.3602,0.0085 -0.59369,1.090799 -1.69905,5.936311 -1.52988,6.706495 0.0428,0.194943 0.16815,0.429396 0.27852,0.521004 0.21002,0.174313 1.43179,0.356618 1.86653,0.278514 0.1389,-0.02495 0.52502,-0.04615 0.85806,-0.04709 z"
         id="path5070"
         transform="matrix(0.26458333,0,0,0.26458333,71.539448,97.185529)" />
      <path
         style="opacity:1;fill:#ffffff;fill-opacity:0.97209305;stroke:none;stroke-width:26.32440948;stroke-linecap:round;stroke-linejoin:round;stroke-miterlimit:4;stroke-dasharray:none;stroke-opacity:1;paint-order:normal"
         d="m 150.59432,55.337465 c -0.0291,-0.08681 -0.20183,-0.981742 -0.38384,-1.988738 -0.63108,-3.491682 -0.87819,-4.113201 -1.81983,-4.577242 -0.53959,-0.265915 -0.73427,-0.283767 -3.03878,-0.278648 -3.74021,0.0083 -3.90601,0.122355 -4.85663,3.340661 -0.5833,1.974774 -0.80784,2.348492 -1.63504,2.721416 -0.92961,0.419092 -2.42949,0.564364 -6.70344,0.649268 -3.66522,0.07281 -5.25032,0.01388 -5.61024,-0.208559 -0.14155,-0.08748 -0.0884,-0.443911 0.29575,-1.981635 1.60089,-6.409097 8.46001,-30.372085 9.41252,-32.883537 0.94709,-2.497171 1.47279,-2.642148 8.71746,-2.404091 2.46585,0.08103 5.45884,0.183013 6.65109,0.226635 l 2.16772,0.07931 0.12036,0.454048 c 0.0662,0.249727 1.46851,4.999736 3.11625,10.555575 4.6567,15.701427 6.92829,23.74936 7.33302,25.97986 l 0.0859,0.473509 h -6.89968 c -5.40734,0 -6.91113,-0.03414 -6.95261,-0.157836 z M 147.0048,40.108054 c 0.31354,-0.387638 0.31139,-1.096145 -0.009,-2.936979 -0.47726,-2.74315 -1.11323,-4.649213 -1.61555,-4.841972 -0.55575,-0.213261 -1.2261,1.247863 -1.85189,4.036435 -0.66774,2.975553 -0.67531,3.711608 -0.0409,3.9781 0.15727,0.06606 0.95873,0.107153 1.78103,0.09131 1.40164,-0.027 1.51017,-0.04744 1.7362,-0.326896 z"
         id="path5072"
         transform="matrix(0.26458333,0,0,0.26458333,71.539448,97.185529)" />
      <path
         style="opacity:1;fill:#ffffff;fill-opacity:0.97209305;stroke:none;stroke-width:26.32440948;stroke-linecap:round;stroke-linejoin:round;stroke-miterlimit:4;stroke-dasharray:none;stroke-opacity:1;paint-order:normal"
         d="m 150.59438,55.337465 c -0.0291,-0.08681 -0.22957,-1.095384 -0.44555,-2.241276 -0.50985,-2.705139 -0.69896,-3.335123 -1.15817,-3.858132 -0.54585,-0.621689 -1.0887,-0.729933 -3.63879,-0.725575 -3.71885,0.0064 -3.92268,0.146496 -4.86186,3.342811 -0.2586,0.880087 -0.57885,1.778845 -0.71166,1.997242 -0.33391,0.549072 -1.31135,0.960578 -2.6971,1.135491 -1.39074,0.175544 -8.39979,0.324414 -9.53751,0.202574 -1.16457,-0.124714 -1.19697,-0.156059 -1.00829,-0.975334 0.77875,-3.381378 5.11571,-18.886664 7.90649,-28.266927 2.17606,-7.314085 2.33325,-7.645637 3.84002,-8.099732 0.72674,-0.219016 5.10347,-0.215115 11.11052,0.0099 2.39596,0.08975 4.36547,0.171018 4.3767,0.180597 0.0638,0.05445 6.30748,21.283368 7.93393,26.975864 1.66006,5.810142 2.71539,9.828774 2.71539,10.339989 0,0.215364 -13.75195,0.197961 -13.82412,-0.01749 z m -3.85294,-15.057901 c 0.48837,-0.252545 0.57935,-0.787443 0.38092,-2.239486 -0.35217,-2.577043 -1.04789,-5.024835 -1.5667,-5.51224 -0.25091,-0.235709 -0.3058,-0.243679 -0.54146,-0.07861 -0.40512,0.283762 -0.79197,1.232353 -1.2624,3.095566 -0.83014,3.287928 -0.90089,4.453904 -0.28905,4.763517 0.45953,0.232537 2.81334,0.211903 3.27869,-0.02874 z"
         id="path5074"
         transform="matrix(0.26458333,0,0,0.26458333,71.539448,97.185529)" />
    </g>
  </g>
</svg>
