<?xml version="1.0" encoding="UTF-8" standalone="no"?>
<svg
   xmlns:dc="http://purl.org/dc/elements/1.1/"
   xmlns:cc="http://creativecommons.org/ns#"
   xmlns:rdf="http://www.w3.org/1999/02/22-rdf-syntax-ns#"
   xmlns:svg="http://www.w3.org/2000/svg"
   xmlns="http://www.w3.org/2000/svg"
   id="svg8"
   version="1.1"
   viewBox="0 0 52.916672 21.16667"
   height="21.16667mm"
   width="52.916672mm">
  <defs
     id="defs2" />
  <g
     transform="translate(-71.539448,-97.185529)"
     id="layer1">
    <g
       transform="translate(-1.7879285,-23.866551)"
       id="g4558"
       style="display:inline">
      <path
         id="path4574"
         d="m 73.327377,131.63541 v -10.58333 h 26.458334 26.458339 v 10.58333 10.58334 H 99.785711 73.327377 Z"
         style="display:inline;fill:#fcfcfd;stroke-width:1" />
      <path
         id="path4566"
         d="m 78.358273,139.06486 c -2.917594,-1.7023 -3.632334,-2.23933 -3.920614,-2.94583 -0.255327,-0.62574 -0.329343,-1.98183 -0.268395,-4.91749 0.100273,-4.82983 -0.148256,-4.43121 4.44978,-7.13714 4.028047,-2.37049 4.176041,-2.36992 8.334375,0.0318 4.679136,2.70251 4.365625,2.16619 4.365625,7.46832 0,3.48862 -0.08413,4.57119 -0.389072,5.00655 -0.601571,0.85887 -7.294243,4.59057 -8.218527,4.58249 -0.492708,-0.004 -2.113977,-0.7822 -4.353172,-2.08869 z m 3.229001,-3.92372 c 0.202946,-0.78644 0.31063,-0.85989 1.260679,-0.85989 0.977697,0 1.048995,0.0545 1.212506,0.92604 l 0.173726,0.92604 h 1.843661 1.84366 l -0.161545,-0.7276 c -0.08885,-0.40019 -0.726263,-2.63261 -1.416474,-4.96094 l -1.254928,-4.23334 -2.177215,-0.0768 c -2.052395,-0.0725 -2.192133,-0.0421 -2.437423,0.52916 -0.263253,0.61312 -2.648627,9.01031 -2.648627,9.32391 0,0.0934 0.796518,0.13463 1.77004,0.0916 1.752078,-0.0774 1.772291,-0.087 1.99194,-0.93813 z m 0.818772,-4.17397 c 0.306416,-1.33904 0.580414,-1.27305 0.852063,0.20522 0.170562,0.92817 0.140115,0.99219 -0.471872,0.99219 -0.63987,0 -0.648197,-0.0262 -0.380191,-1.19741 z"
         style="display:inline;fill:#4756ec;stroke-width:1" />
      <path
         id="path4560"
         d="m 97.412338,131.34884 c 0.577751,-1.61282 1.050456,-2.98204 1.050456,-3.04271 0,-0.0607 0.595313,-0.1103 1.322917,-0.1103 h 1.322919 v 3.04271 3.04271 h -0.67148 c -0.574585,0 -0.660479,-0.10499 -0.595308,-0.72761 0.06778,-0.64758 -0.01926,-0.73678 -0.791454,-0.81109 -0.76167,-0.0733 -0.902141,0.0156 -1.150362,0.72761 -0.208355,0.59768 -0.4479,0.81109 -0.910445,0.81109 h -0.627699 z m 2.585638,-0.70561 c 0.06461,-1.12229 -1.62e-4,-1.38907 -0.337278,-1.38907 -0.422081,0 -0.847334,0.83522 -1.122171,2.20399 -0.139995,0.69722 -0.09768,0.74277 0.614564,0.66146 0.723168,-0.0826 0.769277,-0.16313 0.844885,-1.47638 z m 2.433564,3.55432 c 0,-0.1464 0.53962,-3.17119 0.82289,-4.61266 l 0.27297,-1.38906 h 1.56874 c 1.21596,0 1.68774,0.119 2.0979,0.52917 0.59504,0.59503 0.62865,0.94598 0.25339,2.64583 -0.53021,2.40173 -1.15473,2.91042 -3.57313,2.91042 -0.79351,0 -1.44276,-0.0377 -1.44276,-0.0837 z m 3.39545,-1.43766 c 0.37123,-0.71899 0.61939,-2.41454 0.43734,-2.98813 -0.1127,-0.35508 -0.4023,-0.5176 -0.92237,-0.5176 -0.80639,0 -0.88494,0.1319 -1.18163,1.98438 -0.0932,0.58208 -0.23071,1.26669 -0.30552,1.52135 -0.1114,0.37926 0.0331,0.46302 0.79855,0.46302 0.6226,0 1.01437,-0.15456 1.17363,-0.46302 z m 3.09857,1.16577 c -0.42218,-0.3087 -0.46126,-0.57683 -0.29643,-2.03371 0.31878,-2.81769 1.03808,-3.69612 3.02654,-3.69612 1.8248,0 2.20551,0.87644 1.60237,3.68879 -0.35817,1.67009 -1.18935,2.39663 -2.74182,2.39663 -0.6074,0 -1.3232,-0.16002 -1.59066,-0.35559 z m 2.44051,-0.65926 c 0.83139,-0.52769 1.16909,-3.83511 0.4209,-4.12222 -1.09032,-0.4184 -1.93468,1.02742 -1.94418,3.32908 -0.004,0.87943 0.76049,1.2773 1.52328,0.79314 z m 2.98517,0.55183 c 0.007,-0.25467 0.21576,-1.59412 0.46302,-2.97657 l 0.44958,-2.51354 1.30538,-0.0826 c 2.67992,-0.16963 3.30566,0.58183 2.26851,2.72429 -0.48798,1.00803 -0.53467,1.33329 -0.29153,2.03077 0.40548,1.16316 0.37337,1.2807 -0.3499,1.2807 -0.51708,0 -0.71109,-0.21513 -1.01411,-1.12448 -0.60014,-1.801 -1.50564,-1.48532 -1.51787,0.52916 -0.003,0.45765 -0.15657,0.59532 -0.66507,0.59532 -0.45869,0 -0.65733,-0.14194 -0.64801,-0.46302 z m 3.4156,-3.09616 c 0.53346,-0.64278 0.0798,-1.51193 -0.73978,-1.41714 -0.58114,0.0672 -0.71944,0.23249 -0.7878,0.94142 -0.0731,0.75793 -0.006,0.8599 0.56292,0.8599 0.3552,0 0.7893,-0.17288 0.96466,-0.38418 z m 2.83805,0.99531 c 0.51651,-1.42753 0.99847,-2.80387 1.07103,-3.05853 0.1025,-0.35975 0.4201,-0.46302 1.42398,-0.46302 h 1.29206 v 3.04271 c 0,2.83148 -0.0355,3.04271 -0.51159,3.04271 -0.36142,0 -0.53617,-0.21359 -0.59531,-0.72761 -0.0733,-0.63719 -0.19731,-0.7276 -0.99784,-0.7276 -0.75741,0 -0.94063,0.11338 -1.06879,0.66146 -0.10934,0.46755 -0.35959,0.68548 -0.85367,0.74342 l -0.69899,0.082 z m 2.67719,-1.09637 c 0.0692,-1.20953 0.0166,-1.39864 -0.36806,-1.32291 -0.27049,0.0532 -0.59006,0.56141 -0.80433,1.27898 -0.47822,1.60151 -0.47032,1.63493 0.36404,1.53893 0.68035,-0.0783 0.73285,-0.17538 0.80835,-1.495 z"
         style="display:inline;fill:#172154;stroke-width:1" />
    </g>
  </g>
</svg>
